# Blender v2.82 (sub 7) OBJ File: ''
# www.blender.org
mtllib body.mtl
o Object.003
v 0.593511 0.301960 -0.266503
v -0.080745 -0.199762 -0.118129
v -0.019678 -0.185268 -0.104656
v 0.639127 0.314224 -0.261141
v 0.636889 0.305305 -0.204312
v 0.618608 0.271856 -0.012867
v 0.617406 0.270742 -0.008430
v 0.307931 -0.329095 -0.317868
v 0.289510 -0.311256 -0.344995
v 0.270581 -0.297877 -0.346485
v 0.241920 -0.286727 -0.306905
v 0.067892 -0.267774 -0.303653
v -0.087667 -0.270003 -0.162872
v -0.087689 -0.268889 -0.161758
v 0.062446 -0.293417 -0.140948
v -0.016303 -0.278923 -0.162577
v 0.057798 -0.284498 -0.187877
v -0.084323 -0.270003 -0.162806
v 0.051074 -0.394876 0.039482
v 0.001657 -0.394876 0.170094
v 0.034953 -0.394876 0.121685
v 0.093434 -0.394876 0.040319
v 0.109503 -0.394876 0.017218
v 0.246058 -0.195303 -0.064835
v 0.262083 -0.312371 -0.085706
v 0.246036 -0.187498 -0.063720
v 0.244855 -0.167429 -0.060398
v 0.243674 -0.149590 -0.057076
v 0.209228 -0.156280 -0.063332
v -0.008574 -0.184153 -0.102206
v 0.267766 -0.353624 -0.091170
v 0.080903 -0.430555 -0.059177
v 0.072029 -0.394876 -0.061583
v 0.002551 -0.394876 0.181263
v 0.006327 -0.394876 0.215908
v -0.004300 -0.394876 0.245807
v 0.025802 -0.394877 0.359032
v 0.008399 -0.394877 0.393258
v -0.007141 -0.394877 0.389606
v -0.132488 -0.394877 0.355904
v -0.131484 -0.394877 0.361500
v -0.117490 -0.394877 0.330552
v -0.060886 -0.394876 0.231307
v -0.034322 -0.394876 0.184995
v -0.025185 -0.394876 0.174024
v -0.105625 -0.394876 0.068725
v -0.129510 -0.394876 0.035914
v -0.132788 -0.394876 0.032503
v -0.137115 -0.394876 0.025727
v -0.169574 -0.394876 0.031776
v -0.178734 -0.394876 0.043862
v -0.185158 -0.394876 0.030353
v -0.202311 -0.394876 -0.004555
v -0.190833 -0.431669 -0.021056
v -0.166067 -0.488531 -0.032833
v -0.135573 -0.461773 -0.052303
v -0.109846 -0.420520 -0.056256
v -0.164952 -0.488531 -0.032811
v -0.065979 -0.394877 0.376176
v 0.148593 -0.394876 -0.042227
v 0.144178 -0.397106 -0.044545
v 0.111798 -0.394876 0.013918
v 0.142931 -0.394876 -0.037879
v 0.089768 -0.394876 0.000101
v 0.105110 -0.394876 0.013786
v 0.072783 -0.394876 0.013147
v 0.143085 -0.398221 -0.045682
v -0.024775 -0.448393 -0.072417
v -0.034852 -0.445049 -0.070386
v -0.024775 -0.431669 -0.072417
v -0.025890 -0.394876 -0.072439
v -0.023969 -0.394876 -0.056789
v -0.150161 -0.394876 0.008742
v -0.155867 -0.394876 0.015320
v -0.019875 -0.394876 0.187511
v -0.015394 -0.394876 0.186484
v -0.018827 -0.394876 0.190877
v -0.003441 -0.394876 0.202333
v 0.057392 -0.296762 -0.110939
v 0.041654 -0.243245 -0.104559
v -0.017118 -0.285613 -0.121333
v -0.013579 -0.394876 0.038205
v 0.056018 -0.394876 0.015046
v 0.039403 -0.234325 -0.103488
v -0.024150 -0.278923 -0.160502
v 0.064825 -0.274463 -0.261338
v 0.261739 -0.341359 -0.124743
v 0.256804 -0.330210 -0.157180
v 0.612030 0.271856 -0.018572
v 0.545759 0.272971 -0.163737
v 0.063455 -0.394876 -0.022722
v -0.148994 -0.750542 -0.050338
v -0.128159 -0.916667 -0.371092
v 0.034948 -0.859806 -0.273080
v 0.069914 -0.323520 -0.236704
v 0.006353 -0.529784 -0.236845
v 0.133167 -0.498566 -0.220957
v -0.712898 -0.004648 -0.294549
v -0.652796 -0.199762 -0.401532
v 0.207017 -0.077119 0.387147
v 0.011320 -0.286727 0.301873
v 0.256919 -0.344704 0.232011
v 0.226813 -0.385957 0.006155
v 0.265708 -0.438359 -0.212762
v 0.271278 -0.345819 -0.043148
v 0.304350 -0.224291 0.089093
v -0.257461 -0.061510 0.021119
v 0.259814 -0.052591 0.029110
v -0.424793 -0.000189 -0.032370
v -0.355151 -0.160740 -0.057758
v -0.497519 -0.022487 -0.415190
v -0.196398 0.042179 0.204096
v -0.493914 -0.239900 0.023137
v -0.250327 0.216109 0.393721
v -0.214370 -0.084924 0.379935
v 0.217592 0.313109 0.416350
v 0.026904 0.267397 0.303296
v -0.029418 0.255132 0.275420
v -0.034860 0.252902 0.268621
v -0.261395 0.264052 0.163781
v -0.263493 0.262937 0.157048
v -0.007362 0.246213 0.118619
v 0.314933 0.339868 0.061424
v 0.273160 0.326488 0.087362
v 0.140433 0.288580 0.144958
v 0.106110 0.277431 0.188886
v 0.218948 0.310879 0.121976
v 0.303103 0.340982 0.095760
v 0.029687 -0.528669 -0.458300
v -0.099815 -0.634588 -0.338192
v -0.074172 -0.563232 -0.507189
v -0.248781 -0.205337 -0.135947
v -0.146011 -0.407141 -0.257698
v -0.154943 -0.489646 -0.313633
v -0.285206 -0.429440 -0.211382
v -0.309465 -0.207567 0.056891
v -0.182387 -0.374808 0.059402
v -0.042280 -0.385957 0.192644
v -0.087926 -0.346934 0.245269
v -0.241956 -0.276693 0.252262
v -0.107163 -0.316831 0.259386
v -0.078797 -0.277808 0.291171
v -0.072130 -0.278923 0.292418
v -0.540842 -0.071544 0.027785
v -0.059586 -0.301222 0.447673
v 0.004609 -0.286727 0.302856
v 0.041968 -0.325750 0.274600
v 0.285417 0.078972 0.257108
v 0.173831 0.288580 0.147848
v 0.615740 0.270742 0.019416
v 0.421589 0.275201 -0.031257
v 0.632175 0.441327 0.034238
v 0.642559 0.505993 -0.265534
v 0.453586 0.426833 -0.013897
v 0.436798 0.413454 -0.293018
v 0.320462 0.361051 0.063763
v 0.323675 0.357706 0.070518
v -0.260448 0.262937 0.115848
v 0.105018 0.277431 0.187749
v -0.037350 -0.288957 -0.169684
v -0.036103 -0.467347 -0.176350
v -0.093972 -0.384842 -0.238827
v 0.075571 -0.277808 -0.353684
v -0.111807 -0.383727 -0.239180
v -0.155237 -0.363658 -0.242269
v 0.009165 -0.390417 0.241612
v -0.242436 0.261822 0.107282
v -0.270260 0.264052 0.104502
v -0.263638 0.262937 0.107979
v -0.156136 -0.552083 -0.083934
v -0.033469 -0.691450 -0.253244
v -0.130969 -0.484071 -0.285280
v -0.093950 -0.427210 -0.239942
v -0.096312 -0.377037 -0.515432
v -0.134269 -0.453968 -0.287576
v 0.003599 -0.364773 -0.379639
v -0.135173 -0.383727 -0.241872
v 0.029868 -0.387072 -0.354587
v -0.092879 -0.392647 -0.237691
v -0.268388 -0.682530 -0.272383
v -0.128701 -0.812978 -0.400096
v -0.329125 -0.878760 -0.302578
v -0.037667 -0.389302 0.184929
v -0.018760 -0.393762 0.187533
v -0.006155 -0.389302 0.226812
v -0.000890 -0.385957 0.242529
v 0.002388 -0.381497 0.245939
v 0.008967 -0.373693 0.251645
v -0.004436 -0.086039 0.421999
v -0.272556 0.264052 0.107802
v -0.269234 0.264052 0.108983
vn 0.0319 -0.8867 0.4613
vn -0.1341 0.0406 0.9901
vn 0.1340 -0.4782 0.8680
vn 0.0875 -0.9820 0.1677
vn 0.3331 -0.8323 0.4431
vn 0.9363 0.1087 -0.3341
vn 0.0001 0.6654 -0.7464
vn 0.0054 0.6640 -0.7477
vn 0.0062 0.6638 -0.7478
vn 0.8886 0.4160 -0.1930
vn 0.5843 -0.7736 0.2453
vn 0.2277 -0.6845 0.6926
vn -0.9779 -0.1086 -0.1785
vn -0.0379 -0.0502 0.9980
vn -0.1972 0.9787 -0.0576
vn -0.2019 0.9779 -0.0546
vn -0.1999 0.9781 -0.0582
vn -0.1941 0.9802 -0.0391
vn 0.4244 -0.8555 -0.2968
vn 0.0760 0.4880 -0.8695
vn 0.0723 0.5271 -0.8467
vn 0.0812 0.5449 -0.8346
vn 0.1002 0.5509 -0.8286
vn 0.0943 0.5516 -0.8287
vn 0.0962 0.5514 -0.8287
vn -0.4734 0.3492 -0.8087
vn -0.9248 0.2486 -0.2881
vn -0.9229 0.2564 -0.2874
vn -0.9251 0.2474 -0.2882
vn -0.7357 -0.5531 0.3909
vn -0.3814 -0.8691 0.3148
vn -0.3822 -0.8694 0.3131
vn -0.3812 -0.8690 0.3156
vn -0.1980 -0.5170 0.8328
vn -0.2023 -0.5238 0.8275
vn -0.1984 -0.5186 0.8317
vn -0.2039 -0.5241 0.8269
vn -0.2048 -0.5243 0.8265
vn -0.2411 -0.5405 0.8061
vn -0.9116 -0.2628 0.3162
vn 0.0820 0.9874 0.1352
vn 0.0156 0.9942 0.1064
vn 0.1257 -0.5001 0.8568
vn 0.1256 -0.5003 0.8567
vn 0.1256 -0.5004 0.8566
vn 0.8845 -0.0586 0.4629
vn -0.2535 -0.5498 -0.7959
vn -0.0312 -0.9990 0.0315
vn -0.5641 0.2172 -0.7966
vn -0.0157 -0.9995 -0.0278
vn -0.1830 -0.9830 -0.0110
vn 0.7646 -0.6429 0.0457
vn 0.9951 -0.0469 0.0868
vn 0.9917 -0.1023 0.0779
vn 0.9990 -0.0270 0.0351
vn 0.9991 -0.0255 0.0344
vn 0.9991 -0.0246 0.0341
vn 0.9994 -0.0172 0.0309
vn -0.9784 0.2008 0.0492
vn -0.4728 -0.7675 -0.4328
vn -0.4788 -0.7617 -0.4365
vn -0.4789 -0.7616 -0.4366
vn -0.4806 -0.7599 -0.4377
vn -0.1871 0.8841 0.4281
vn -0.1710 0.8482 0.5013
vn 0.0452 0.9968 -0.0666
vn 0.7235 -0.0648 -0.6872
vn 0.9838 0.0956 0.1516
vn -0.5682 0.2110 -0.7954
vn -0.1885 0.8824 0.4310
vn -0.1939 0.8896 0.4136
vn -0.3235 0.9456 -0.0337
vn -0.1960 0.9789 -0.0575
vn -0.2017 0.9779 -0.0547
vn -0.1030 0.9898 0.0989
vn -0.0204 0.9715 0.2362
vn 0.0764 0.3443 -0.9358
vn 0.0804 0.3454 -0.9350
vn 0.0809 0.3457 -0.9348
vn 0.7527 0.0298 -0.6577
vn -0.9700 -0.2191 -0.1049
vn -0.7130 0.4887 -0.5028
vn -0.0188 0.0157 0.9997
vn -0.0375 0.0722 0.9967
vn -0.1727 0.9202 0.3512
vn -0.9800 -0.1645 -0.1117
vn -0.9431 -0.3310 0.0305
vn -0.9426 -0.3324 0.0310
vn -0.9429 -0.3317 0.0308
vn 0.0182 0.3807 -0.9245
vn 0.0660 0.4808 -0.8743
vn 0.1620 -0.7736 0.6126
vn 0.6879 -0.6849 -0.2405
vn 0.6961 -0.6748 -0.2453
vn 0.6970 -0.6739 -0.2451
vn 0.6934 -0.6774 -0.2458
vn 0.6928 -0.6779 -0.2459
vn -0.9582 -0.2198 -0.1834
vn -0.9512 -0.2415 -0.1920
vn -0.8907 -0.4191 -0.1759
vn 0.0001 1.0000 -0.0001
vn 0.0787 -0.9954 0.0550
vn 0.0751 -0.9957 0.0535
vn 0.0796 -0.9953 0.0554
vn 0.0633 0.7686 -0.6366
vn 0.0268 0.7353 -0.6772
vn 0.0679 0.3415 -0.9374
vn 0.0688 0.3422 -0.9371
vn 0.7480 -0.0974 -0.6565
vn -0.9202 -0.1175 0.3733
vn -0.9201 -0.1176 0.3737
vn -0.9203 -0.1174 0.3731
vn -0.0182 0.2582 -0.9659
vn 0.0070 0.6635 -0.7481
vn 0.9373 0.1248 -0.3253
vn 0.9374 0.1267 -0.3244
vn 0.9375 0.1305 -0.3225
vn 0.9373 0.1228 -0.3263
vn 0.9372 0.1100 -0.3311
vn 0.9842 0.1488 -0.0957
vn 0.9842 0.1498 -0.0949
vn 0.9843 0.1483 -0.0961
vn 0.9905 0.1042 -0.0894
vn -0.9474 -0.2482 -0.2021
vn -0.9474 -0.2483 -0.2018
vn -0.9473 -0.2492 -0.2013
vn 0.0000 1.0000 0.0000
vn -0.0001 -1.0000 0.0000
vn 0.0000 -1.0000 -0.0000
vn -0.1825 -0.5901 0.7864
vn -0.1802 -0.5892 0.7876
vn -0.1846 -0.5905 0.7856
vn -0.1796 -0.5891 0.7879
vn -0.1766 -0.5896 0.7881
vn -0.8669 0.4736 0.1555
vn -0.2831 -0.9419 0.1808
vn -0.2658 -0.9422 0.2041
vn 0.7102 -0.3705 0.5986
vn 0.0000 -1.0000 -0.0001
vn 0.7585 -0.3071 0.5748
vn -0.8087 -0.4450 0.3846
vn -0.0153 -0.6280 0.7781
vn 0.7169 -0.3739 0.5884
vn 0.7159 0.2341 -0.6578
vn 0.6637 0.3905 -0.6380
vn 0.7508 0.0371 -0.6595
vn -0.4270 -0.3773 0.8218
vn -0.4247 -0.3778 0.8227
vn -0.4254 -0.3777 0.8224
vn -0.4142 -0.3801 0.8270
vn -0.9723 -0.1177 -0.2018
vn -0.9710 -0.1266 -0.2028
vn -0.9727 -0.1156 -0.2011
vn -0.9700 -0.1339 -0.2027
vn -0.0433 0.9974 -0.0582
vn -0.3972 -0.3806 0.8351
vn 0.9887 0.1071 0.1047
vn 0.1660 -0.6437 -0.7471
vn 0.2487 -0.6405 -0.7266
vn 0.5630 -0.2289 -0.7941
vn 0.0393 -0.0082 -0.9992
vn -0.0939 -0.0618 0.9937
vn -0.9677 -0.1229 -0.2202
vn 0.7459 0.0202 -0.6657
vn 0.7368 0.0048 -0.6761
vn 0.9925 0.0300 -0.1185
vn 0.9941 0.0000 -0.1084
vn -0.2713 -0.9412 0.2012
vn -0.2717 -0.9411 0.2012
vn -0.2716 -0.9412 0.2010
vn -0.2700 -0.9416 0.2013
vn 0.7108 -0.3870 0.5874
vn -0.0140 -0.7072 0.7069
vn 0.3572 -0.8878 0.2901
vn 0.3366 -0.8335 0.4383
vn 0.3336 -0.8236 0.4587
vn 0.0131 -0.7474 -0.6642
vn 0.7599 0.0338 -0.6492
vn 0.0693 -0.2475 -0.9664
vn 0.0824 0.7409 -0.6666
vn -0.7505 -0.1816 -0.6354
vn -0.2752 0.2289 -0.9338
vn -0.8416 0.1823 0.5084
vn -0.8890 -0.1623 0.4283
vn 0.8033 0.2635 0.5341
vn -0.6467 0.1046 0.7556
vn -0.8098 -0.4325 0.3964
vn -0.8071 -0.4388 0.3950
vn -0.8075 -0.4382 0.3949
vn 0.7204 -0.3584 0.5938
vn -0.8159 -0.4344 0.3817
vn -0.8105 -0.4308 0.3968
vn -0.7981 -0.4575 0.3922
vn -0.2495 -0.9382 0.2398
vn -0.2704 -0.9421 0.1984
vn -0.2705 -0.9423 0.1973
vn -0.2703 -0.9425 0.1968
vn -0.2538 -0.9476 0.1939
vn -0.2524 -0.9477 0.1955
vn -0.2514 -0.9472 0.1988
vn -0.3023 -0.9272 0.2213
vn -0.8705 -0.0809 -0.4854
vn -0.7674 -0.4657 -0.4408
vn 0.1548 0.0812 -0.9846
vn 0.1696 -0.1505 -0.9739
vn -0.2573 -0.9474 0.1901
vn -0.2525 -0.9487 0.1904
vn -0.2514 -0.9473 0.1987
vn -0.2543 -0.9490 0.1862
vn 0.8677 -0.4414 -0.2283
vn 0.9129 -0.3340 -0.2347
vn 0.8599 -0.4548 -0.2318
vn 0.8206 -0.5224 -0.2317
vn 0.8496 -0.4761 -0.2271
vn 0.1469 -0.5076 0.8490
vn -0.1304 -0.5112 0.8495
vn -0.1565 -0.5248 0.8367
vn 0.9938 0.0079 -0.1109
vn 0.9938 0.0106 -0.1106
vn 0.9938 0.0075 -0.1109
vn -0.2556 -0.9476 0.1918
vn 0.6966 -0.6929 -0.1861
vn 0.0047 1.0000 0.0013
vn 0.0031 1.0000 0.0020
vn -0.0003 -1.0000 -0.0003
vn 0.8426 0.3263 0.4284
vn 0.7202 -0.6668 -0.1915
vn -0.9499 -0.2415 -0.1985
vn -0.9496 -0.2419 -0.1995
vn -0.9488 -0.2537 -0.1881
vn 0.3273 -0.8231 0.4641
vn 0.9812 0.1502 -0.1213
vn 0.9855 0.1344 -0.1037
vn 0.9503 -0.0769 0.3018
vn 0.9371 0.0519 -0.3451
vn 0.0171 -0.7829 -0.6219
vn 0.0131 -0.7473 -0.6643
vn 0.0735 -0.9959 0.0528
vn -0.9449 -0.2531 -0.2075
vn 0.9939 0.0059 -0.1106
vn -0.9409 -0.3371 0.0326
vn -0.5170 0.6078 -0.6027
vn -0.1139 -0.0944 0.9890
vn -0.0633 0.1350 0.9888
vn 0.0962 0.5425 -0.8346
vn -0.9868 -0.1183 -0.1105
vn 0.0297 -0.0690 -0.9972
vn 0.2543 -0.7197 -0.6460
vn -0.0176 -0.9998 0.0003
vn 0.8992 0.3276 -0.2900
vn 0.7271 0.3867 0.5672
vn 0.1653 -0.0781 0.9831
vn 0.1256 -0.5006 0.8565
vn 0.1253 -0.5023 0.8556
vn 0.1399 0.9816 0.1297
vn -0.8279 -0.3097 -0.4677
vn -0.8203 -0.3244 -0.4710
vn -0.2709 -0.9403 0.2061
vn -0.9501 -0.0663 0.3048
vn 0.8299 0.3468 0.4370
vn 0.8293 0.3475 0.4377
vn 0.8292 0.3475 0.4378
vn -0.7849 -0.4778 0.3944
vn -0.9224 0.2581 -0.2873
vn -0.5635 0.1580 -0.8109
vn 0.0921 0.5519 -0.8288
vn -0.3128 0.6270 -0.7134
vn 0.0274 0.7380 -0.6743
vn -0.1707 0.8737 0.4555
vn -0.5675 0.2032 -0.7979
vn -0.5677 0.2024 -0.7979
vn -0.5647 0.2110 -0.7979
vn -0.5638 0.2136 -0.7978
vn -0.6434 0.6211 -0.4476
vn -0.9143 0.3875 0.1182
vn -0.9142 0.3870 0.1202
vn -0.9142 0.3875 0.1187
vn -0.3350 -0.0112 0.9422
vn -0.8074 0.5686 0.1574
vn -0.0473 0.9774 0.2061
vn -0.2375 0.9632 -0.1258
vn -0.1944 0.1219 0.9733
vn -0.9141 0.3851 0.1270
vn -0.6264 0.6147 -0.4794
vn -0.1913 -0.0803 0.9782
vn -0.1338 0.9697 0.2045
vn 0.0928 0.5457 -0.8328
vn -0.7952 -0.6033 0.0613
vn 0.7976 -0.5301 0.2877
vn -0.3620 -0.8796 0.3085
vn 0.4231 0.0102 -0.9060
vn 0.8478 0.1180 0.5171
vn -0.9308 0.3348 0.1469
vn -0.9710 -0.1284 -0.2019
vn -0.9710 -0.1287 -0.2017
vn -0.1678 -0.5085 0.8445
vn -0.1714 -0.5073 0.8445
vn -0.1666 -0.5089 0.8445
vn -0.8532 0.4903 0.1781
vn -0.8566 0.4874 0.1697
vn -0.8529 0.4908 0.1781
vn 0.6933 -0.1284 0.7091
vn 0.5578 -0.2209 -0.8001
vn 0.1076 0.9746 -0.1967
vn 0.3795 -0.8970 -0.2268
vn 0.3157 -0.5942 -0.7398
vn -0.0109 -0.8882 0.4593
vn -0.0066 0.0014 1.0000
vn 0.1615 -0.4975 0.8523
vn 0.1843 -0.9775 0.1022
vn 0.3445 -0.8205 0.4562
vn 0.9840 0.1514 -0.0936
vn 0.0105 0.2570 -0.9663
vn 0.6680 -0.7412 0.0667
vn -0.8251 -0.4450 0.3481
vn -0.3440 0.8658 0.3633
vn 0.6302 0.3804 -0.6769
vn 0.9220 -0.3710 0.1105
vn -0.5536 0.2328 -0.7996
vn 0.9944 0.0109 -0.1053
vn 0.8301 0.3467 0.4368
vn -0.4080 0.9128 -0.0192
vn 0.0508 0.5490 -0.8343
vn -0.3776 -0.8672 0.3245
vn 0.9097 -0.4128 -0.0459
vn -0.2550 -0.9476 0.1925
vn 0.7252 0.3883 -0.5686
vn 0.6898 -0.2277 0.6872
vn -0.9280 0.3567 0.1075
vn -0.1719 -0.5071 0.8446
vn -0.8574 0.4866 0.1677
vn 0.6626 -0.2804 0.6945
vn 0.6354 0.3399 -0.6933
vn 0.1032 0.9782 -0.1803
vn 0.6388 -0.5969 -0.4853
vn 0.2348 -0.7216 -0.6513
usemtl Material_0_0_0.001
s 1
f 92//1 93//1 94//1
f 95//2 96//2 97//2
f 100//3 101//3 102//3
f 102//4 62//4 103//4
f 32//5 104//5 105//5
f 105//6 24//6 106//6
f 107//7 108//8 29//9
f 109//10 110//10 111//10
f 112//11 113//11 110//11
f 114//12 113//12 112//12
f 112//13 115//13 114//13
f 115//14 116//14 114//14
f 116//15 117//16 114//17
f 118//18 114//18 117//18
f 129//19 130//19 131//19
f 132//20 3//20 2//20
f 132//21 2//21 14//21
f 132//22 14//22 133//22
f 132//23 133//24 134//25
f 134//26 135//26 132//26
f 136//27 132//28 135//29
f 136//30 135//30 137//30
f 138//31 139//32 140//33
f 139//34 141//35 140//36
f 141//35 115//37 140//36
f 115//37 141//35 142//38
f 115//39 142//39 143//39
f 144//40 99//40 113//40
f 143//41 145//41 146//41
f 145//42 101//42 146//42
f 101//43 147//44 102//45
f 116//46 100//46 148//46
f 149//47 150//47 148//47
f 151//48 150//48 149//48
f 151//49 149//49 127//49
f 151//50 89//50 150//50
f 89//51 7//51 150//51
f 150//52 7//52 6//52
f 150//53 6//53 5//53
f 150//54 5//54 152//54
f 5//55 4//56 152//57
f 153//58 152//57 4//56
f 151//59 154//59 155//59
f 155//60 1//61 151//62
f 1//61 90//63 151//62
f 154//64 156//64 152//64
f 157//65 152//65 156//65
f 98//66 109//66 111//66
f 112//67 109//67 158//67
f 108//68 100//68 102//68
f 151//69 156//69 154//69
f 128//70 152//70 157//70
f 149//71 152//71 128//71
f 116//72 152//72 149//72
f 116//15 149//73 126//74
f 126//75 149//75 159//75
f 125//76 159//76 149//76
f 108//77 125//78 149//79
f 160//80 161//80 162//80
f 12//81 163//81 86//81
f 164//82 14//82 13//82
f 164//83 162//83 95//83
f 165//84 164//84 95//84
f 163//85 165//85 95//85
f 163//86 95//86 17//86
f 17//87 95//88 15//89
f 160//90 13//90 18//90
f 18//91 16//91 160//91
f 160//92 16//92 85//92
f 85//93 81//93 160//93
f 166//94 160//95 81//96
f 166//94 81//96 84//97
f 166//98 84//98 80//98
f 80//99 83//99 166//99
f 21//100 166//100 83//100
f 21//101 83//101 19//101
f 166//102 22//103 23//104
f 166//102 23//104 62//104
f 3//105 107//105 30//105
f 30//106 107//106 29//106
f 108//77 167//107 122//108
f 168//109 158//109 109//109
f 158//110 107//111 112//111
f 169//112 107//111 158//110
f 169//113 167//113 107//113
f 29//9 108//8 28//114
f 106//115 28//116 108//117
f 106//115 27//118 28//116
f 106//119 26//119 27//119
f 25//120 105//121 31//122
f 104//123 31//123 105//123
f 33//124 97//125 32//126
f 83//127 33//127 91//127
f 72//128 35//128 82//128
f 20//127 82//127 35//127
f 34//129 20//129 35//129
f 145//130 39//131 38//132
f 39//131 145//130 59//133
f 41//134 59//133 145//130
f 141//135 40//135 41//135
f 49//136 48//136 137//136
f 73//137 49//137 137//137
f 137//138 50//138 73//138
f 74//139 73//139 50//139
f 137//140 51//140 50//140
f 51//141 137//141 52//141
f 58//142 55//142 170//142
f 161//143 58//143 170//143
f 161//144 171//144 134//144
f 134//145 172//145 161//145
f 173//146 161//146 172//146
f 172//147 130//148 173//149
f 96//150 173//149 130//148
f 174//151 175//152 133//153
f 133//154 165//154 174//154
f 176//155 174//155 165//155
f 165//156 133//156 177//156
f 176//157 96//157 129//157
f 96//158 176//158 178//158
f 97//159 96//159 178//159
f 178//160 176//160 163//160
f 9//161 178//161 163//161
f 96//162 179//162 173//162
f 175//163 130//163 172//163
f 161//164 173//164 179//164
f 161//165 179//165 162//165
f 71//166 70//166 161//166
f 70//167 68//167 161//167
f 161//168 68//169 69//170
f 161//168 69//170 57//171
f 57//172 56//172 161//172
f 60//173 61//173 67//173
f 60//174 67//174 105//174
f 63//175 60//175 105//175
f 66//176 63//176 105//176
f 66//129 64//129 63//129
f 66//177 103//177 65//177
f 175//178 172//178 134//178
f 134//179 171//179 180//179
f 180//180 171//180 181//180
f 180//181 181//181 93//181
f 182//182 180//182 93//182
f 180//183 182//183 92//183
f 180//184 92//184 135//184
f 92//185 94//185 171//185
f 92//186 170//186 135//186
f 135//187 170//188 54//189
f 58//190 161//190 56//190
f 54//191 170//191 55//191
f 54//189 53//192 135//187
f 137//193 53//193 52//193
f 48//194 47//194 137//194
f 46//195 137//196 47//197
f 46//198 45//199 183//200
f 46//201 183//201 138//201
f 40//202 138//202 183//202
f 183//203 44//203 40//203
f 183//204 184//204 44//204
f 44//205 184//205 75//205
f 77//127 75//127 36//127
f 78//206 184//207 76//208
f 184//207 78//206 185//209
f 37//210 184//210 185//210
f 37//211 185//211 186//211
f 37//212 186//212 187//212
f 37//213 187//213 188//213
f 37//214 188//214 147//214
f 188//215 166//215 147//215
f 166//216 188//216 187//216
f 166//217 187//217 186//217
f 35//218 71//219 166//220
f 78//206 35//221 185//209
f 184//222 36//222 75//222
f 183//200 76//208 184//207
f 76//208 183//200 45//199
f 43//223 42//224 44//224
f 40//225 44//225 42//225
f 147//226 38//226 37//226
f 184//227 37//227 36//227
f 35//127 72//127 71//127
f 83//228 79//229 33//124
f 79//229 97//125 33//124
f 15//230 97//230 79//230
f 32//231 105//231 67//231
f 87//232 31//232 104//232
f 88//233 87//233 104//233
f 8//234 88//234 104//234
f 106//235 24//235 26//235
f 105//236 103//236 66//236
f 62//237 65//177 103//177
f 166//102 21//238 22//103
f 83//239 80//239 79//239
f 160//240 166//220 71//219
f 97//241 15//89 95//88
f 165//242 163//242 176//242
f 165//243 177//243 164//243
f 162//244 179//244 95//244
f 177//245 14//245 164//245
f 17//246 86//246 163//246
f 9//247 163//247 10//247
f 9//248 8//248 104//248
f 89//249 151//249 90//249
f 108//250 149//250 148//250
f 106//251 108//251 102//251
f 189//252 100//252 116//252
f 102//45 147//44 166//253
f 189//254 146//254 101//254
f 142//255 145//255 143//255
f 40//256 141//256 139//256
f 40//257 139//257 138//257
f 137//196 46//195 138//258
f 140//259 115//259 136//259
f 38//260 101//261 145//262
f 137//263 135//263 53//263
f 107//264 132//28 136//27
f 134//265 180//265 135//265
f 175//266 134//25 133//24
f 133//267 14//267 177//267
f 132//268 107//268 3//268
f 149//269 128//269 127//269
f 151//270 127//271 124//272
f 108//77 122//108 125//78
f 151//270 124//272 123//273
f 144//274 190//274 168//274
f 191//275 113//276 121//277
f 191//278 190//278 113//278
f 114//279 120//279 121//279
f 120//280 114//280 119//280
f 119//281 114//281 118//281
f 116//15 126//74 117//16
f 189//282 116//282 115//282
f 121//277 113//276 114//283
f 144//284 168//284 109//284
f 144//285 113//285 190//285
f 153//286 154//286 152//286
f 162//287 13//287 160//287
f 137//288 140//288 136//288
f 106//289 103//289 105//289
f 185//290 166//290 186//290
f 174//291 129//291 131//291
f 171//292 170//292 92//292
f 112//293 136//293 115//293
f 175//152 131//294 130//295
f 189//296 143//297 146//298
f 142//299 41//300 145//301
f 116//302 150//302 152//302
f 181//303 94//303 93//303
f 163//304 11//304 10//304
f 99//305 110//305 113//305
f 178//306 104//306 97//306
f 92//307 182//307 93//307
f 95//308 179//308 96//308
f 100//309 189//309 101//309
f 102//310 166//310 62//310
f 32//311 97//311 104//311
f 105//121 25//120 24//312
f 107//313 167//313 108//313
f 129//314 96//314 130//314
f 144//315 98//315 99//315
f 98//316 144//316 109//316
f 112//317 110//317 109//317
f 108//318 148//318 100//318
f 151//319 123//319 156//319
f 160//240 71//219 161//320
f 38//260 147//321 101//261
f 153//322 155//322 154//322
f 162//323 164//323 13//323
f 137//324 138//31 140//33
f 106//325 102//325 103//325
f 185//209 35//221 166//326
f 174//327 176//327 129//327
f 171//328 161//328 170//328
f 112//329 107//329 136//329
f 175//152 174//151 131//294
f 189//296 115//330 143//297
f 142//299 141//331 41//300
f 116//332 148//332 150//332
f 181//333 171//333 94//333
f 163//334 12//334 11//334
f 99//335 111//335 110//335
f 178//336 9//336 104//336
