# Blender v2.82 (sub 7) OBJ File: ''
# www.blender.org
mtllib gray.mtl
o Object.001
v -0.659581 0.167052 -0.340332
v -0.729742 0.183776 -0.345064
v -0.763140 0.189351 -0.347954
v -0.799881 0.198270 -0.350911
v -0.486843 0.143638 -0.334688
v -0.865606 0.213880 -0.354440
v -0.894567 0.220569 -0.356127
v -0.901101 0.172627 -0.364062
v -0.908750 0.122455 -0.372020
v -0.914191 0.078972 -0.378818
v -0.884137 0.075627 -0.375994
v -0.846259 0.071168 -0.374130
v -0.818413 0.067823 -0.372465
v -0.778327 0.063363 -0.369442
v -0.752711 0.060018 -0.367821
v -0.388748 0.129144 -0.332750
v -0.658180 0.169282 -0.354801
v -0.670067 0.070053 -0.373994
v 0.505083 0.061133 -0.306166
v 0.540710 0.055558 -0.303231
v -0.584917 0.157018 -0.337741
v -0.095620 0.089007 -0.324727
v -0.047709 0.082317 -0.322665
v -0.068360 -0.060395 -0.349837
v -0.291789 0.115765 -0.329719
v -0.437795 0.135834 -0.333719
v -0.408350 0.002041 -0.356555
v -0.360417 -0.006878 -0.355608
v -0.554378 0.028800 -0.359441
v -0.505331 0.019880 -0.358472
v -0.457398 0.010961 -0.357525
v -0.214389 -0.033637 -0.352723
v -0.165341 -0.042556 -0.351753
v -0.263436 -0.024717 -0.353692
v -0.873255 0.167052 -0.362397
v -0.879789 0.117995 -0.370332
v -0.651359 0.046639 -0.361357
v -0.117408 -0.051476 -0.350806
v -0.242741 0.109076 -0.328749
v 0.469068 -0.165199 -0.345908
v 0.511383 -0.174119 -0.342841
v -0.144668 0.095696 -0.325696
v -0.739576 0.132489 -0.355295
v -0.770700 0.113535 -0.360370
v -0.769652 0.138064 -0.357004
v -0.535869 0.150328 -0.336772
v -0.806394 0.145869 -0.359960
v -0.633964 0.163707 -0.338711
v -0.811879 0.116880 -0.364529
v -0.602311 0.037719 -0.360388
v -0.311369 -0.015798 -0.354639
v -0.340837 0.122455 -0.330688
v -0.649958 0.052214 -0.375827
v -0.745062 0.105731 -0.359864
v -0.746000 0.095696 -0.368803
v -0.749367 0.080087 -0.367755
v -0.764906 0.104616 -0.371407
v -0.743771 0.107961 -0.368759
v -0.745956 0.097926 -0.371033
v -0.193715 0.102386 -0.326665
v -0.838610 0.117995 -0.366173
v -0.828842 0.203845 -0.352598
v 0.492036 -0.045901 -0.323151
v -0.835354 0.151443 -0.361648
v 0.541018 -0.050361 -0.318837
v -0.748142 0.081202 -0.373306
v -0.738285 0.133604 -0.364190
v 0.493482 -0.043671 -0.339850
v 0.542133 0.058903 -0.318815
v 0.542463 -0.048131 -0.335536
v 0.512828 -0.171889 -0.359540
v -0.768339 0.139179 -0.367015
v -0.729566 0.186006 -0.353982
v -0.799705 0.199386 -0.359828
v -0.835178 0.152558 -0.370566
v -0.827529 0.204960 -0.362609
v -0.893254 0.221684 -0.366138
v -0.262035 -0.021372 -0.368161
v -0.339413 0.125800 -0.346272
v -0.388461 0.132489 -0.347241
v -0.144381 0.097926 -0.340188
v -0.214102 -0.030292 -0.367214
v -0.193429 0.105731 -0.341157
v -0.455997 0.013191 -0.371994
v -0.437509 0.139179 -0.348210
v -0.095334 0.091236 -0.339218
v -0.068074 -0.057050 -0.364328
v -0.117121 -0.048131 -0.365298
v -0.311083 -0.012453 -0.369130
v -0.899810 0.173742 -0.372958
v -0.865408 0.214995 -0.364472
v -0.873078 0.168167 -0.371315
v -0.844968 0.072283 -0.383026
v -0.818237 0.068938 -0.381383
v -0.583515 0.159248 -0.352211
v -0.359016 -0.003533 -0.370078
v -0.534468 0.152558 -0.351241
v -0.602025 0.039949 -0.374880
v -0.912900 0.080087 -0.387714
v -0.878498 0.119110 -0.379228
v -0.882825 0.076742 -0.386004
v -0.632541 0.165937 -0.354295
v -0.907459 0.123570 -0.380915
v -0.290388 0.119110 -0.344188
v -0.486535 0.145869 -0.350294
v -0.505044 0.022110 -0.372963
v -0.811703 0.117995 -0.373447
v -0.165054 -0.039211 -0.366245
v -0.769387 0.114650 -0.370381
v -0.751420 0.061133 -0.376717
v -0.046308 0.084547 -0.337135
v -0.408064 0.004271 -0.371047
v 0.470491 -0.162969 -0.361492
v -0.805103 0.148098 -0.368856
v -0.778151 0.064478 -0.378360
v -0.838412 0.120225 -0.376205
v 0.506506 0.063363 -0.321750
v -0.762963 0.191581 -0.356872
v -0.241340 0.112420 -0.343219
v -0.552977 0.031030 -0.373910
vn 0.9711 -0.2091 0.1147
vn 0.1002 0.1537 -0.9830
vn 0.1003 0.1540 -0.9830
vn 0.1016 0.1657 -0.9809
vn 0.1015 0.1659 -0.9809
vn 0.1153 0.1765 -0.9775
vn 0.1221 0.1709 -0.9777
vn 0.1234 0.1699 -0.9777
vn 0.1246 0.1312 -0.9835
vn -0.9810 0.1518 -0.1204
vn -0.9817 0.1522 -0.1147
vn -0.9820 0.1523 -0.1118
vn 0.9849 -0.1631 0.0577
vn -0.9781 0.1995 -0.0601
vn -0.9782 0.1994 -0.0588
vn -0.9782 0.1994 -0.0581
vn 0.1261 0.9672 0.2205
vn 0.1270 0.9663 0.2240
vn 0.1273 0.9659 0.2255
vn 0.0511 0.1794 -0.9825
vn 0.0491 0.1805 -0.9824
vn 0.0482 0.1809 -0.9823
vn 0.9897 -0.1427 -0.0134
vn 0.0514 0.1759 -0.9831
vn 0.1331 0.9665 0.2196
vn -0.1707 -0.9586 -0.2277
vn -0.1725 -0.9566 -0.2348
vn -0.1700 -0.9594 -0.2248
vn 0.0896 0.1284 -0.9877
vn 0.0881 0.1296 -0.9876
vn 0.0878 0.1299 -0.9876
vn -0.1156 -0.9853 -0.1255
vn -0.9890 0.1475 0.0145
vn 0.1274 0.9787 0.1608
vn 0.1302 0.9779 0.1633
vn 0.1311 0.9785 0.1593
vn 0.9854 -0.1602 0.0576
vn 0.9855 -0.1598 0.0564
vn 0.9856 -0.1597 0.0558
vn 0.0500 0.1765 -0.9830
vn 0.0455 0.1791 -0.9828
vn 0.0440 0.1799 -0.9827
vn 0.0790 0.1449 -0.9863
vn 0.0735 0.1497 -0.9860
vn 0.0728 0.1503 -0.9860
vn -0.1735 -0.9760 -0.1315
vn 0.1239 0.9804 0.1531
vn 0.1186 0.9798 0.1608
vn 0.1249 0.9805 0.1517
vn 0.1425 0.9794 0.1434
vn 0.9850 -0.1185 0.1251
vn 0.9857 -0.1190 0.1189
vn 0.9847 -0.1182 0.1281
vn 0.0501 0.1778 -0.9828
vn 0.0453 0.1769 -0.9832
vn 0.0518 0.1781 -0.9826
vn -0.9891 0.1475 0.0020
vn -0.9891 0.1474 0.0027
vn -0.9891 0.1474 0.0031
vn 0.9912 -0.1325 0.0030
vn -0.0968 -0.9857 -0.1376
vn 0.9892 -0.1461 -0.0111
vn 0.9890 -0.1476 -0.0062
vn 0.9889 -0.1485 -0.0033
vn 0.9975 -0.0586 -0.0389
vn 0.2856 0.9476 0.1430
vn 0.9843 -0.1633 0.0665
vn 0.2174 0.9696 0.1121
vn 0.9664 -0.1877 0.1756
vn -0.9765 0.1798 -0.1192
vn -0.1700 -0.9595 -0.2248
vn 0.1290 0.9785 0.1610
vn 0.1277 0.9795 0.1555
vn 0.1272 0.9800 0.1532
vn 0.9963 -0.0099 0.0859
vn 0.9961 -0.0105 0.0876
vn 0.9960 -0.0108 0.0886
vn -0.9885 0.1508 0.0067
vn -0.9887 0.1493 0.0118
vn -0.9884 0.1517 0.0038
vn 0.9841 -0.1630 0.0702
vn 0.1268 0.9637 0.2350
vn 0.1268 0.9637 0.2351
vn -0.9884 0.1514 0.0122
vn -0.9882 0.1528 0.0071
vn -0.9885 0.1505 0.0152
vn -0.1779 -0.9721 -0.1531
vn -0.1808 -0.9715 -0.1536
vn -0.1776 -0.9716 -0.1566
vn -0.9894 0.1446 0.0139
vn 0.0650 0.1704 -0.9832
vn -0.1966 -0.9692 -0.1485
vn -0.1938 -0.9688 -0.1542
vn -0.1929 -0.9687 -0.1562
vn 0.0994 0.1509 -0.9835
vn 0.1417 0.1632 -0.9764
vn 0.1003 0.1454 -0.9843
vn 0.9842 -0.1409 0.1075
vn -0.1875 -0.9742 -0.1255
vn -0.1385 -0.9824 -0.1256
vn 0.9689 -0.2420 0.0515
vn 0.0786 0.1432 -0.9866
vn 0.0337 0.9916 0.1246
vn -0.9830 0.1447 -0.1128
vn -0.1145 -0.9835 -0.1399
vn 0.0441 0.1746 -0.9836
vn 0.0465 0.1751 -0.9834
vn 0.0432 0.1745 -0.9837
vn 0.9900 -0.1408 -0.0130
vn -0.9850 0.1571 -0.0712
vn 0.1306 0.9795 0.1533
vn 0.0770 0.1301 -0.9885
vn -0.9888 0.1318 -0.0705
vn -0.9889 0.1318 -0.0689
vn -0.9889 0.1318 -0.0680
vn -0.1759 -0.9718 -0.1573
vn -0.9834 0.1418 -0.1132
vn -0.9795 0.1687 -0.1097
vn 0.1392 0.9600 0.2428
vn 0.1818 0.9746 0.1310
vn 0.1809 0.9753 0.1270
vn 0.1805 0.9755 0.1257
vn 0.1488 0.9629 0.2252
vn -0.9819 0.1424 -0.1247
vn 0.0435 0.1847 -0.9818
vn 0.9869 -0.1616 -0.0001
vn 0.9869 -0.1616 0.0010
vn 0.9869 -0.1615 -0.0006
vn 0.9869 -0.1602 -0.0206
vn 0.0797 0.1630 -0.9834
vn 0.1142 0.1775 -0.9775
vn 0.0803 0.1646 -0.9831
vn -0.9807 0.1517 -0.1233
vn -0.9780 0.1995 -0.0608
vn 0.1257 0.9676 0.2192
vn 0.0519 0.1789 -0.9825
vn 0.9834 -0.1676 0.0694
vn 0.0661 0.1784 -0.9817
vn 0.1106 0.9824 0.1507
vn -0.1731 -0.9558 -0.2377
vn 0.0899 0.1282 -0.9877
vn -0.1099 -0.9841 -0.1393
vn 0.9853 -0.1604 0.0583
vn 0.0514 0.1756 -0.9831
vn 0.0797 0.1443 -0.9863
vn -0.1671 -0.9750 -0.1465
vn 0.1177 0.9797 0.1624
vn 0.9861 -0.1193 0.1160
vn 0.0435 0.1766 -0.9833
vn -0.9891 0.1475 0.0016
vn -0.1028 -0.9870 -0.1234
vn 0.9893 -0.1453 -0.0139
vn 0.9696 -0.2300 0.0831
vn 0.2275 0.9362 0.2677
vn 0.9874 -0.1538 0.0364
vn 0.2236 0.9650 0.1368
vn 0.9790 -0.1635 0.1216
vn -0.9909 0.1340 0.0102
vn 0.1295 0.9780 0.1633
vn 0.9963 -0.0096 0.0849
vn -0.9888 0.1485 0.0147
vn -0.9881 0.1537 0.0041
vn -0.1732 -0.9707 -0.1664
vn -0.1481 -0.9603 -0.2363
vn -0.9845 0.1657 -0.0570
vn 0.0518 0.1779 -0.9827
vn -0.1975 -0.9693 -0.1465
vn 0.9944 -0.1058 0.0064
vn -0.1930 -0.9697 -0.1496
vn -0.1676 -0.9503 -0.2624
vn 0.0589 0.9742 0.2177
vn -0.9949 0.1010 0.0055
vn -0.1206 -0.9847 -0.1255
vn 0.0473 0.1753 -0.9834
vn 0.9839 -0.1647 0.0699
vn -0.9883 0.1526 0.0040
vn 0.1135 0.1439 -0.9831
vn -0.9887 0.1318 -0.0714
vn -0.9895 0.1446 -0.0014
vn -0.9851 0.1718 0.0020
vn 0.1820 0.9744 0.1324
vn 0.1279 0.9815 0.1428
vn 0.0664 0.1758 -0.9822
vn 0.9869 -0.1615 0.0015
usemtl Material.002
s 1
f 67//1 2//1 43//1
f 68//2 69//3 70//4
f 71//5 68//2 70//4
f 72//6 73//7 67//8
f 74//9 75//9 76//9
f 77//10 8//11 7//12
f 78//13 39//13 34//13
f 68//14 40//15 63//16
f 16//17 79//18 80//19
f 81//20 82//21 83//22
f 26//23 84//23 85//23
f 86//24 87//24 88//24
f 69//25 19//25 20//25
f 78//26 51//27 89//28
f 90//29 91//30 92//31
f 13//32 93//32 94//32
f 60//33 82//33 32//33
f 46//34 95//35 21//36
f 52//37 96//38 79//39
f 97//40 98//41 95//42
f 99//43 100//44 101//45
f 72//46 43//46 45//46
f 17//47 48//48 102//49
f 103//50 36//50 100//50
f 11//51 100//52 36//53
f 104//54 78//55 89//56
f 30//57 105//58 106//59
f 13//60 107//60 49//60
f 99//61 11//61 10//61
f 42//62 108//63 81//64
f 59//65 54//65 55//65
f 54//66 109//66 44//66
f 48//67 53//67 102//67
f 91//68 7//68 6//68
f 56//69 110//69 66//69
f 61//70 93//70 12//70
f 32//28 108//71 33//71
f 22//72 111//73 86//74
f 20//75 70//76 69//77
f 16//78 112//79 27//80
f 29//81 97//81 46//81
f 87//28 38//71 88//71
f 39//82 104//82 25//83
f 22//84 88//85 38//86
f 98//87 29//88 50//89
f 112//87 28//87 27//87
f 25//90 89//90 51//90
f 85//91 106//91 105//91
f 113//92 41//93 40//94
f 57//95 66//95 110//95
f 110//96 109//96 57//96
f 109//97 58//97 57//97
f 114//98 4//98 47//98
f 8//99 92//99 35//99
f 114//100 64//100 75//100
f 41//101 70//101 65//101
f 115//102 109//102 110//102
f 107//103 61//103 49//103
f 3//104 72//104 45//104
f 15//105 115//105 110//105
f 96//106 80//107 79//108
f 87//109 23//109 24//109
f 95//110 50//110 21//110
f 81//111 60//111 42//111
f 116//112 94//112 93//112
f 63//113 117//114 68//115
f 106//87 31//87 30//116
f 76//117 64//117 62//117
f 109//118 14//118 44//118
f 73//119 3//119 2//119
f 74//120 62//121 4//122
f 85//123 5//123 26//123
f 103//124 10//124 9//124
f 102//125 18//125 17//125
f 91//126 35//127 92//128
f 67//129 73//129 2//129
f 68//2 117//3 69//3
f 71//130 113//130 68//130
f 72//6 118//131 73//7
f 74//132 114//132 75//132
f 77//10 90//133 8//11
f 78//13 119//13 39//13
f 68//14 113//134 40//15
f 16//17 52//135 79//18
f 81//20 108//136 82//21
f 26//137 31//137 84//137
f 86//138 111//138 87//138
f 69//139 117//139 19//139
f 78//26 34//140 51//27
f 90//29 77//141 91//30
f 13//142 12//142 93//142
f 60//33 83//33 82//33
f 46//34 97//35 95//35
f 52//37 28//143 96//38
f 97//40 120//144 98//41
f 99//43 103//145 100//44
f 72//146 67//146 43//146
f 17//47 1//147 48//48
f 103//50 9//50 36//50
f 11//51 101//148 100//52
f 104//54 119//149 78//55
f 30//57 5//150 105//58
f 13//60 94//60 107//60
f 99//151 101//151 11//151
f 42//62 33//152 108//63
f 59//153 58//153 54//153
f 54//154 58//154 109//154
f 48//155 37//155 53//155
f 91//156 77//156 7//156
f 56//157 15//157 110//157
f 61//158 116//158 93//158
f 32//28 82//28 108//71
f 22//72 23//159 111//73
f 20//75 65//160 70//76
f 16//78 80//161 112//79
f 29//81 120//81 97//81
f 87//28 24//28 38//71
f 39//82 119//82 104//82
f 22//84 86//162 88//85
f 98//163 120//163 29//163
f 112//164 96//164 28//164
f 25//165 104//165 89//165
f 85//166 84//166 106//166
f 113//92 71//167 41//93
f 114//168 74//168 4//168
f 8//169 90//169 92//169
f 114//170 47//170 64//170
f 41//101 71//101 70//101
f 107//171 116//171 61//171
f 3//172 118//172 72//172
f 15//173 14//173 115//173
f 96//106 112//174 80//107
f 87//175 111//175 23//175
f 95//176 98//176 50//176
f 81//123 83//123 60//123
f 116//177 107//177 94//177
f 63//113 19//178 117//114
f 106//163 84//163 31//163
f 76//179 75//179 64//179
f 109//180 115//180 14//180
f 73//119 118//119 3//119
f 74//120 76//181 62//121
f 85//182 105//182 5//182
f 103//124 99//124 10//124
f 102//183 53//183 18//183
f 91//126 6//184 35//127
