# Blender v2.82 (sub 7) OBJ File: ''
# www.blender.org
mtllib guitarhand.mtl
o Object.001_Object.007
v -0.728187 0.048869 -0.367336
v -0.734897 0.057788 -0.366354
v -0.730681 0.046639 -0.354004
v -0.735646 0.043294 -0.328453
v -0.695230 0.047754 -0.342152
v -0.677108 0.049984 -0.356291
v -0.673433 0.072283 -0.372945
v -0.670067 0.070053 -0.373994
v -0.668080 0.049984 -0.361688
v -0.651117 0.048869 -0.373619
v -0.649958 0.052214 -0.375827
v -0.706003 0.074512 -0.361322
v -0.748362 0.089007 -0.362159
v -0.746000 0.095696 -0.368803
v -0.749367 0.080087 -0.367755
v -0.749433 0.078972 -0.364411
v -0.764906 0.104616 -0.371407
v -0.745956 0.097926 -0.371033
v -0.690396 0.068938 -0.361014
v -0.688167 0.067823 -0.360970
v -0.675905 0.056674 -0.360727
v -0.673455 0.070053 -0.371831
v -0.712898 -0.004648 -0.294549
v -0.677346 0.035489 -0.513532
v -0.652796 -0.199762 -0.401532
v -0.645834 0.191581 -0.471649
v -0.775745 0.128029 -0.387234
v -0.503428 0.104616 -0.511211
v -0.497519 -0.022487 -0.415190
v -0.748142 0.081202 -0.373306
vn -0.9626 -0.1916 -0.1914
vn -0.7907 -0.5703 -0.2228
vn -0.8247 -0.5121 -0.2399
vn 0.5292 0.4649 0.7098
vn 0.4460 0.5071 0.7376
vn 0.2780 0.5858 0.7613
vn 0.2042 0.6138 0.7626
vn 0.1807 0.6238 0.7604
vn 0.1998 0.6102 0.7667
vn 0.2002 0.6098 0.7668
vn 0.1997 0.6102 0.7666
vn 0.1994 0.6105 0.7665
vn -0.4170 -0.2912 -0.8610
vn -0.2580 0.6724 -0.6937
vn 0.4946 0.4824 0.7229
vn 0.4943 0.4825 0.7231
vn 0.4941 0.4826 0.7232
vn 0.4413 0.5539 0.7060
vn 0.4750 0.5106 0.7167
vn 0.5001 0.4838 0.7182
vn 0.5769 0.0889 0.8119
vn 0.5908 0.2914 0.7523
vn -0.8099 -0.5360 -0.2383
vn -0.8010 -0.5554 -0.2234
vn 0.2084 0.6512 0.7297
vn -0.7853 -0.5825 -0.2097
vn -0.8454 -0.4560 -0.2782
vn 0.2339 0.6852 0.6898
vn 0.4561 0.5174 0.7241
vn 0.5114 0.3800 0.7708
vn 0.3171 0.7862 0.5304
vn 0.1879 0.6250 0.7577
vn -0.7987 -0.5569 -0.2281
vn -0.8005 -0.5539 -0.2288
vn -0.8006 -0.5539 -0.2288
vn -0.8112 -0.5350 -0.2362
vn 0.2401 -0.5780 -0.7799
vn -0.8057 -0.5455 -0.2308
vn 0.4952 0.4822 0.7226
vn 0.3499 -0.3727 -0.8595
usemtl Material_0_0_0.001
s 1
f 23//1 24//1 25//1
f 2//2 24//2 1//2
f 1//3 24//3 3//3
f 7//4 8//4 26//4
f 20//5 7//5 26//5
f 19//6 20//6 26//6
f 12//7 19//7 26//7
f 18//8 12//8 26//8
f 17//9 18//10 26//11
f 27//12 17//9 26//11
f 26//13 28//13 27//13
f 27//14 28//14 24//14
f 11//15 26//16 8//17
f 23//18 29//18 28//18
f 28//19 10//19 23//19
f 10//20 5//20 23//20
f 10//21 9//21 5//21
f 28//22 11//22 10//22
f 27//23 24//23 17//23
f 17//24 24//24 30//24
f 12//25 14//25 13//25
f 15//26 24//26 16//26
f 30//27 24//27 15//27
f 12//28 18//28 14//28
f 20//29 21//29 22//29
f 20//30 22//30 7//30
f 9//31 6//31 5//31
f 4//32 23//32 5//32
f 3//33 24//34 4//35
f 16//36 24//36 2//36
f 29//37 24//37 28//37
f 23//38 4//35 24//34
f 11//15 28//39 26//16
f 29//40 25//40 24//40
