# Blender v2.82 (sub 7) OBJ File: ''
# www.blender.org
mtllib hand.mtl
o Object.hand_Object.006
v 0.637030 0.268512 -0.267873
v 0.593511 0.301960 -0.266503
v 0.612462 0.289695 -0.266128
v 0.640352 0.270742 -0.266692
v 0.642581 0.269626 -0.266648
v 0.638122 0.272971 -0.266736
v 0.639171 0.300845 -0.263370
v 0.639127 0.314224 -0.261141
v 0.639259 0.268512 -0.267829
v 0.591740 0.151443 -0.402587
v 0.748211 0.207190 -0.363810
v 0.626701 0.291925 -0.478842
v 0.457255 0.249558 -0.425317
v 0.642559 0.505993 -0.265534
v 0.436798 0.413454 -0.293018
vn -0.4597 -0.5880 0.6655
vn 0.1182 -0.7689 0.6284
vn -0.0105 -0.8480 0.5299
vn 0.0622 -0.8075 0.5866
vn 0.4471 0.8903 -0.0861
vn -0.1697 -0.4372 -0.8832
vn 0.9937 -0.0152 0.1111
vn 0.9982 -0.0171 -0.0571
vn 0.9979 -0.0303 -0.0570
vn 0.9980 -0.0274 -0.0567
vn 0.9979 -0.0307 -0.0565
vn 0.5419 0.8392 0.0458
vn 0.6709 0.6772 0.3020
vn -0.5061 -0.7923 -0.3408
vn -0.2221 0.6964 -0.6824
vn -0.5180 -0.5603 0.6463
vn 0.3742 -0.5126 -0.7728
vn -0.3735 0.5540 -0.7440
vn -0.5059 -0.5792 0.6393
usemtl Material_0_0_0.001
s 1
f 1//1 3//1 10//1
f 10//2 11//2 1//2
f 9//3 1//3 11//3
f 5//4 9//4 11//4
f 11//5 4//5 5//5
f 12//6 10//6 13//6
f 14//7 8//7 7//7
f 14//8 7//9 12//10
f 6//11 12//10 7//9
f 12//12 6//12 11//12
f 11//13 6//13 4//13
f 15//14 3//14 2//14
f 12//15 15//15 14//15
f 3//16 13//16 10//16
f 12//17 11//17 10//17
f 12//18 13//18 15//18
f 3//19 15//19 13//19
